<svg xmlns="http://www.w3.org/2000/svg" viewBox="0 0 310 205" fill="none">
  <rect width="310" height="205" fill="#C8E8F3"/>
  <path d="M75 174c5-35 13-61 19-81l18-15 86 1 18 14c8 21 15 48 20 81H75Z" fill="#F7D98A" stroke="#172554" stroke-width="4"/>
  <path d="m106 86 5-38 24 1 7 36m47 1 4-39 23 2 2 43" fill="#38BDF8" stroke="#172554" stroke-width="4" stroke-linejoin="round"/>
  <path d="m110 56 23 1m57 1 23 2" stroke="#F43F5E" stroke-width="9" stroke-linecap="round"/>
  <path d="m98 94 17-13 13 7 13-8 15 10 17-8 14 9 15-7 17 12-1 13-119-3-1-12Z" fill="#A3E635" stroke="#172554" stroke-width="3"/>
  <path d="M123 137c8 10 18 10 25 0m28 2c8 10 18 10 25 0" stroke="#172554" stroke-width="5" stroke-linecap="round"/>
  <path d="m97 100 5 8m16-21 5 9m21-10 4 10m17-8 4 10m22-9 4 10m15-12 4 9" stroke="#F43F5E" stroke-width="4" stroke-linecap="round"/>
  <path d="M109 47V28h17v20m60 1V26h17v24" stroke="#172554" stroke-width="4" stroke-linecap="round"/>
  <path d="M104 28h27m51-2h27" stroke="#F97316" stroke-width="8" stroke-linecap="round"/>
  <path d="m79 113 9-6m139 5 10 6" stroke="#8B5CF6" stroke-width="5" stroke-linecap="round"/>
</svg>
